<svg width="300" height="200" viewBox="0 0 300 200" xmlns="http://www.w3.org/2000/svg" fill="none">
  <!-- Fondo -->
  <rect width="300" height="200" fill="#FFF8E1" rx="20"/>

  <!-- Pan -->
  <ellipse cx="150" cy="110" rx="70" ry="40" fill="#F9A825" stroke="#EF6C00" stroke-width="4"/>
  <path d="M90 110 C95 100, 105 100, 110 110" stroke="#EF6C00" stroke-width="3" fill="none"/>
  <path d="M120 110 C125 100, 135 100, 140 110" stroke="#EF6C00" stroke-width="3" fill="none"/>
  <path d="M150 110 C155 100, 165 100, 170 110" stroke="#EF6C00" stroke-width="3" fill="none"/>
  <path d="M180 110 C185 100, 195 100, 200 110" stroke="#EF6C00" stroke-width="3" fill="none"/>

  <!-- Espigas de trigo a los lados -->
  <g stroke="#A1887F" stroke-width="2">
    <!-- Izquierda -->
    <path d="M65 80 Q60 75, 55 80"/>
    <path d="M65 85 Q60 80, 55 85"/>
    <path d="M65 90 Q60 85, 55 90"/>
    <path d="M65 95 Q60 90, 55 95"/>
    <line x1="60" y1="75" x2="60" y2="100"/>

    <!-- Derecha -->
    <path d="M235 80 Q240 75, 245 80"/>
    <path d="M235 85 Q240 80, 245 85"/>
    <path d="M235 90 Q240 85, 245 90"/>
    <path d="M235 95 Q240 90, 245 95"/>
    <line x1="240" y1="75" x2="240" y2="100"/>
  </g>

  <!-- Texto "Kiara" -->
  <text x="150" y="170" font-family="Georgia, serif" font-size="36" text-anchor="middle" fill="#6D4C41">Kiara</text>
  <text x="150" y="185" font-family="Georgia, serif" font-size="14" text-anchor="middle" fill="#8D6E63">Panadería artesanal</text>
</svg>
